<?xml version="1.0" encoding="utf-8"?>
<!-- Generator: Adobe Illustrator 23.0.3, SVG Export Plug-In . SVG Version: 6.00 Build 0)  -->
<svg version="1.1" id="MontreTotal" xmlns="http://www.w3.org/2000/svg" xmlns:xlink="http://www.w3.org/1999/xlink" x="0px"
	 y="0px" viewBox="0 0 1366 768" style="enable-background:new 0 0 1366 768;" xml:space="preserve">
<style type="text/css">
	.st0{clip-path:url(#SVGID_2_);}
	.st1{clip-path:url(#SVGID_4_);fill:#FFFFFF;}
	.st2{clip-path:url(#SVGID_4_);fill:none;stroke:#000000;stroke-width:0.5;stroke-miterlimit:10;}
	.st3{clip-path:url(#SVGID_6_);fill:#FFFFFF;}
	.st4{clip-path:url(#SVGID_6_);fill:none;stroke:#000000;stroke-width:0.5;stroke-miterlimit:10;}
	.st5{clip-path:url(#SVGID_6_);fill:#B3B3B3;}
	.st6{font-family:'ArialMT';}
	.st7{font-size:98px;}
	.st8{letter-spacing:-10;}
	.st9{font-size:30px;}
	.st10{clip-path:url(#SVGID_10_);}
	.st11{clip-path:url(#SVGID_12_);fill:#BBBDBF;}
	.st12{clip-path:url(#SVGID_12_);fill:#929497;}
	.st13{clip-path:url(#SVGID_12_);fill:#A6A8AB;}
	.st14{clip-path:url(#SVGID_12_);fill:#231F20;}
	.st15{clip-path:url(#SVGID_12_);fill:#58595B;}
	.st16{clip-path:url(#SVGID_12_);fill:#404041;}
	.st17{clip-path:url(#SVGID_12_);fill:#808284;}
	.st18{clip-path:url(#SVGID_12_);fill:#6D6E70;}
	.st19{clip-path:url(#SVGID_14_);}
	.st20{clip-path:url(#SVGID_16_);}
	.st21{filter:url(#Adobe_OpacityMaskFilter);}
	.st22{clip-path:url(#SVGID_18_);fill:url(#SVGID_20_);}
	.st23{clip-path:url(#SVGID_18_);mask:url(#SVGID_19_);fill:url(#SVGID_21_);}
	.st24{clip-path:url(#SVGID_23_);fill:url(#SVGID_24_);}
	.st25{clip-path:url(#SVGID_14_);fill:#8C98A0;}
	.st26{opacity:0.6;clip-path:url(#SVGID_14_);}
	.st27{clip-path:url(#SVGID_26_);}
	.st28{clip-path:url(#SVGID_28_);fill:url(#SVGID_29_);}
	.st29{opacity:0.8;clip-path:url(#SVGID_14_);}
	.st30{clip-path:url(#SVGID_31_);}
	.st31{clip-path:url(#SVGID_33_);fill:url(#SVGID_34_);}
	.st32{clip-path:url(#SVGID_36_);}
	.st33{clip-path:url(#SVGID_38_);fill:url(#SVGID_39_);}
	.st34{clip-path:url(#SVGID_41_);}
	.st35{clip-path:url(#SVGID_43_);fill:url(#SVGID_44_);}
	.st36{clip-path:url(#SVGID_46_);}
	.st37{clip-path:url(#SVGID_48_);fill:url(#SVGID_49_);}
	.st38{clip-path:url(#SVGID_51_);}
	.st39{clip-path:url(#SVGID_53_);fill:url(#SVGID_54_);}
	.st40{clip-path:url(#SVGID_56_);}
	.st41{clip-path:url(#SVGID_58_);fill:url(#SVGID_59_);}
	.st42{clip-path:url(#SVGID_61_);}
	.st43{clip-path:url(#SVGID_63_);fill:url(#SVGID_64_);}
	.st44{opacity:0.4;clip-path:url(#SVGID_14_);}
	.st45{clip-path:url(#SVGID_66_);}
	.st46{clip-path:url(#SVGID_68_);fill:url(#SVGID_69_);}
	.st47{opacity:0.7;clip-path:url(#SVGID_14_);}
	.st48{clip-path:url(#SVGID_71_);}
	.st49{clip-path:url(#SVGID_73_);fill:url(#SVGID_74_);}
	.st50{clip-path:url(#SVGID_76_);}
	.st51{clip-path:url(#SVGID_78_);fill:url(#SVGID_79_);}
	.st52{clip-path:url(#SVGID_81_);}
	.st53{clip-path:url(#SVGID_83_);fill:url(#SVGID_84_);}
	.st54{clip-path:url(#SVGID_86_);}
	.st55{clip-path:url(#SVGID_88_);fill:url(#SVGID_89_);}
	.st56{clip-path:url(#SVGID_91_);}
	.st57{clip-path:url(#SVGID_93_);fill:url(#SVGID_94_);}
	.st58{clip-path:url(#SVGID_96_);}
	.st59{clip-path:url(#SVGID_98_);fill:url(#SVGID_99_);}
	.st60{clip-path:url(#SVGID_101_);}
	.st61{clip-path:url(#SVGID_103_);fill:url(#SVGID_104_);}
	.st62{clip-path:url(#SVGID_101_);fill:#B2B4B7;}
	.st63{clip-path:url(#SVGID_106_);fill:url(#SVGID_107_);}
	.st64{clip-path:url(#SVGID_101_);fill:#8C98A0;}
	.st65{opacity:0.8;clip-path:url(#SVGID_101_);}
	.st66{clip-path:url(#SVGID_111_);}
	.st67{clip-path:url(#SVGID_113_);fill:url(#SVGID_114_);}
</style>
<g id="MontreGroupe">
	<defs>
		<rect id="SVGID_1_" width="1366" height="768"/>
	</defs>
	<clipPath id="SVGID_2_">
		<use xlink:href="#SVGID_1_"  style="overflow:visible;"/>
	</clipPath>
	<g id="BraceletGroupe" class="st0">
		<defs>
			<rect id="SVGID_3_" width="1366" height="768"/>
		</defs>
		<clipPath id="SVGID_4_">
			<use xlink:href="#SVGID_3_"  style="overflow:visible;"/>
		</clipPath>
		<path id="BraceltArriereBG" class="st1" d="M550.4,73.4c0,0,52.2-20.3,98.6-18.8c46.4,1.4,95.7,15.9,95.7,15.9s-29,271-26.1,349.3
			C721.4,498,746.1,727,746.1,727s-47.8,21.7-92.8,18.8c-44.9-2.9-97.1-17.4-97.1-17.4s23.9-239.1,23.9-333.3S550.4,73.4,550.4,73.4
			"/>
		<path id="BraceletArriereStroke" class="st2" d="M550.4,73.4c0,0,52.2-20.3,98.6-18.8c46.4,1.4,95.7,15.9,95.7,15.9
			s-29,271-26.1,349.3C721.4,498,746.1,727,746.1,727s-47.8,21.7-92.8,18.8c-44.9-2.9-97.1-17.4-97.1-17.4s23.9-239.1,23.9-333.3
			S550.4,73.4,550.4,73.4z"/>
		<path id="BracletHautBG" class="st1" d="M509.8,199.4c0,0,39.1-72.5,34.8-126.1c0,0,17.4-27.5,102.9-27.5s110.1,18.8,110.1,18.8
			s14.8,110.1,35.1,130.4c0,0-96,18.8-148.1,18.8S509.8,199.4,509.8,199.4"/>
		<path id="BraceletHautStroke" class="st2" d="M509.8,199.4c0,0,39.1-72.5,34.8-126.1c0,0,17.4-27.5,102.9-27.5
			s110.1,18.8,110.1,18.8s14.8,110.1,35.1,130.4c0,0-96,18.8-148.1,18.8S509.8,199.4,509.8,199.4z"/>
		<path id="BraceletBasBG" class="st1" d="M795.1,607.8c0,0-41.9,70.9-39.6,124.7c0,0-18.4,26.9-103.9,23.6s-109.3-23-109.3-23
			s-10.6-110.6-30.1-131.7c0,0,96.6-15.2,148.7-13.2C713.1,590.2,795.1,607.8,795.1,607.8"/>
		<path id="BraceletBasStroke" class="st2" d="M795.1,607.8c0,0-41.9,70.9-39.6,124.7c0,0-18.4,26.9-103.9,23.6s-109.3-23-109.3-23
			s-10.6-110.6-30.1-131.7c0,0,96.6-15.2,148.7-13.2C713.1,590.2,795.1,607.8,795.1,607.8z"/>
	</g>
	<g id="CadranGroupe" class="st0">
		<defs>
			<rect id="SVGID_5_" width="1366" height="768"/>
		</defs>
		<clipPath id="SVGID_6_">
			<use xlink:href="#SVGID_5_"  style="overflow:visible;"/>
		</clipPath>
		<path id="CadranExtBG" class="st3" d="M758.5,629.8H540.2c-44.6,0-80.8-36.2-80.8-80.8V257c0-44.6,36.2-80.8,80.8-80.8h218.3
			c44.6,0,80.8,36.2,80.8,80.8v292C839.3,593.6,803.2,629.8,758.5,629.8"/>
		<path id="CadranExtStroke" class="st4" d="M758.5,629.8H540.2c-44.6,0-80.8-36.2-80.8-80.8V257c0-44.6,36.2-80.8,80.8-80.8h218.3
			c44.6,0,80.8,36.2,80.8,80.8v292C839.3,593.6,803.2,629.8,758.5,629.8z"/>
		<path id="CadranIntBG" class="st3" d="M747.9,604.4h-197c-39.9,0-72.2-32.3-72.2-72.2V273.8c0-39.9,32.3-72.2,72.2-72.2h197
			c39.9,0,72.2,32.3,72.2,72.2v258.4C820.1,572.1,787.7,604.4,747.9,604.4"/>
		<path id="CadranIntStroke" class="st4" d="M747.9,604.4h-197c-39.9,0-72.2-32.3-72.2-72.2V273.8c0-39.9,32.3-72.2,72.2-72.2h197
			c39.9,0,72.2,32.3,72.2,72.2v258.4C820.1,572.1,787.7,604.4,747.9,604.4z"/>
		<path id="FondAffichageHeure" class="st5" d="M735.9,587.9H562.8c-36,0-65.2-29.2-65.2-65.2V283.3c0-36,29.2-65.2,65.2-65.2h173.1
			c36,0,65.2,29.2,65.2,65.2v239.4C801.1,558.7,771.9,587.9,735.9,587.9"/>
		<path id="ContourAffichageHeure" class="st4" d="M735.9,587.9H562.8c-36,0-65.2-29.2-65.2-65.2V283.3c0-36,29.2-65.2,65.2-65.2
			h173.1c36,0,65.2,29.2,65.2,65.2v239.4C801.1,558.7,771.9,587.9,735.9,587.9z"/>
	</g>
	<g class="st0">
		<defs>
			<rect id="SVGID_7_" width="1366" height="768"/>
		</defs>
		<clipPath id="SVGID_8_">
			<use xlink:href="#SVGID_7_"  style="overflow:visible;"/>
		</clipPath>
	</g>
	<g id="Heure" class="st0">
		<text transform="matrix(1 0 0 1 519.1284 375.353)"><tspan x="0" y="0" class="st6 st7 st8">1</tspan><tspan x="43.9" y="0" class="st6 st7 st8">O:</tspan><tspan x="126.4" y="0" class="st6 st7 st8">1</tspan><tspan x="170.3" y="0" class="st6 st7">O</tspan></text>
	</g>
	<g id="Date" class="st0">
		<text transform="matrix(1 0 0 1 568.4434 267.6079)"><tspan x="0" y="0" class="st6 st9">Lun</tspan><tspan x="49" y="0" class="st6 st9">.  </tspan><tspan x="73" y="0" class="st6 st9">24</tspan><tspan x="105.6" y="0" class="st6 st9"> </tspan><tspan x="113.6" y="0" class="st6 st9">o</tspan><tspan x="130" y="0" class="st6 st9">ct</tspan><tspan x="152.6" y="0" class="st6 st9">.</tspan></text>
	</g>
	<g id="Marque" class="st0">
		<text transform="matrix(1 0 0 1 594.5137 557.0176)"><tspan x="0" y="0" class="st6 st9">T</tspan><tspan x="18" y="0" class="st6 st9">i</tspan><tspan x="24.3" y="0" class="st6 st9">K</tspan><tspan x="44" y="0" class="st6 st9">•</tspan><tspan x="54.1" y="0" class="st6 st9">T</tspan><tspan x="72.1" y="0" class="st6 st9">a</tspan><tspan x="88.4" y="0" class="st6 st9">K</tspan></text>
	</g>
	<g id="Icons" class="st0">
		<defs>
			<rect id="SVGID_9_" width="1366" height="768"/>
		</defs>
		<clipPath id="SVGID_10_">
			<use xlink:href="#SVGID_9_"  style="overflow:visible;"/>
		</clipPath>
		<g class="st10">
			<defs>
				<rect id="SVGID_11_" x="708.3" y="442.4" width="44" height="44"/>
			</defs>
			<clipPath id="SVGID_12_">
				<use xlink:href="#SVGID_11_"  style="overflow:visible;"/>
			</clipPath>
			<path class="st11" d="M728.9,442.4c-5,0.3-9.6,2.3-13.2,5.5l9.1,9.1c1.2-0.9,2.6-1.5,4.1-1.7V442.4z"/>
			<path class="st12" d="M708.3,465.8c0.3,5.1,2.3,9.6,5.5,13.2l9.1-9.1c-0.9-1.2-1.5-2.6-1.7-4.1H708.3z"/>
			<path class="st13" d="M713.7,449.9c-3.1,3.6-5.2,8.2-5.5,13.2h12.9c0.2-1.5,0.8-2.9,1.7-4.1L713.7,449.9z"/>
			<path class="st14" d="M744.8,447.9c-3.6-3.1-8.2-5.2-13.2-5.5v12.9c1.5,0.2,2.9,0.8,4.1,1.7L744.8,447.9z"/>
			<path class="st15" d="M737.6,469.9l9.1,9.1c3.1-3.6,5.2-8.2,5.5-13.2h-12.9C739.1,467.3,738.5,468.7,737.6,469.9"/>
			<path class="st16" d="M752.3,463.1c-0.3-5.1-2.3-9.6-5.5-13.2l-9.1,9.1c0.9,1.2,1.5,2.6,1.7,4.1H752.3z"/>
			<path class="st17" d="M715.7,481c3.6,3.1,8.2,5.2,13.2,5.5v-12.9c-1.5-0.2-2.9-0.8-4.1-1.7L715.7,481z"/>
			<path class="st18" d="M731.6,486.4c5.1-0.3,9.6-2.3,13.2-5.5l-9.1-9.1c-1.2,0.9-2.6,1.5-4.1,1.7V486.4z"/>
		</g>
		<g class="st10">
			<defs>
				<rect id="SVGID_13_" x="547.8" y="441.4" width="42.4" height="46.1"/>
			</defs>
			<clipPath id="SVGID_14_">
				<use xlink:href="#SVGID_13_"  style="overflow:visible;"/>
			</clipPath>
			<g class="st19">
				<g>
					<defs>
						<rect id="SVGID_15_" x="547.8" y="478.2" width="42.4" height="9.3"/>
					</defs>
					<clipPath id="SVGID_16_">
						<use xlink:href="#SVGID_15_"  style="overflow:visible;"/>
					</clipPath>
					<g class="st20">
						<defs>
							<path id="SVGID_17_" d="M590.2,482.9c0,2.6-9.5,4.6-21.2,4.6c-11.7,0-21.2-2.1-21.2-4.6c0-2.6,9.5-4.6,21.2-4.6
								C580.7,478.2,590.2,480.3,590.2,482.9"/>
						</defs>
						<clipPath id="SVGID_18_">
							<use xlink:href="#SVGID_17_"  style="overflow:visible;"/>
						</clipPath>
						<defs>
							<filter id="Adobe_OpacityMaskFilter" filterUnits="userSpaceOnUse" x="547.8" y="478.2" width="42.4" height="9.3">
								<feColorMatrix  type="matrix" values="1 0 0 0 0  0 1 0 0 0  0 0 1 0 0  0 0 0 1 0"/>
							</filter>
						</defs>
						<mask maskUnits="userSpaceOnUse" x="547.8" y="478.2" width="42.4" height="9.3" id="SVGID_19_">
							<g class="st21">
								
									<radialGradient id="SVGID_20_" cx="0" cy="768.0001" r="1" gradientTransform="matrix(21.2042 0 0 -4.6405 569.0239 4046.7712)" gradientUnits="userSpaceOnUse">
									<stop  offset="0" style="stop-color:#F2F2F2"/>
									<stop  offset="9.815951e-02" style="stop-color:#F2F2F2"/>
									<stop  offset="1" style="stop-color:#000000"/>
								</radialGradient>
								<rect x="547.8" y="478.2" class="st22" width="42.4" height="9.3"/>
							</g>
						</mask>
						
							<radialGradient id="SVGID_21_" cx="0" cy="768.0001" r="1" gradientTransform="matrix(21.2042 0 0 -4.6405 569.024 4046.7708)" gradientUnits="userSpaceOnUse">
							<stop  offset="0" style="stop-color:#DADADA"/>
							<stop  offset="9.815951e-02" style="stop-color:#DADADA"/>
							<stop  offset="1" style="stop-color:#FFFFFF"/>
						</radialGradient>
						<rect x="547.8" y="478.2" class="st23" width="42.4" height="9.3"/>
					</g>
				</g>
			</g>
			<g class="st19">
				<defs>
					<path id="SVGID_22_" d="M569,483.6c-11.6,0-21-9.4-21-21c0-11.6,9.4-21,21-21c11.6,0,21,9.4,21,21
						C590.1,474.2,580.6,483.6,569,483.6"/>
				</defs>
				<clipPath id="SVGID_23_">
					<use xlink:href="#SVGID_22_"  style="overflow:visible;"/>
				</clipPath>
				
					<radialGradient id="SVGID_24_" cx="0" cy="768" r="1" gradientTransform="matrix(21.8635 0 0 -21.8635 568.9633 17269.3711)" gradientUnits="userSpaceOnUse">
					<stop  offset="0" style="stop-color:#FFFFFF"/>
					<stop  offset="1" style="stop-color:#B1BFC7"/>
				</radialGradient>
				<rect x="548" y="441.5" class="st24" width="42.1" height="42.1"/>
			</g>
			<path class="st25" d="M569,441.7c11.5,0,20.9,9.4,20.9,20.9c0,11.5-9.4,20.9-20.9,20.9c-11.5,0-20.9-9.4-20.9-20.9
				C548.1,451.1,557.5,441.7,569,441.7 M569,441.4c-11.7,0-21.2,9.5-21.2,21.2c0,11.7,9.5,21.2,21.2,21.2c11.7,0,21.2-9.5,21.2-21.2
				C590.2,450.9,580.7,441.4,569,441.4"/>
			<g class="st26">
				<g>
					<defs>
						<rect id="SVGID_25_" x="553.9" y="459.4" width="15" height="15"/>
					</defs>
					<clipPath id="SVGID_26_">
						<use xlink:href="#SVGID_25_"  style="overflow:visible;"/>
					</clipPath>
					<g class="st27">
						<defs>
							<path id="SVGID_27_" d="M568.9,466.9c0,4.1-3.4,7.5-7.5,7.5c-4.1,0-7.5-3.4-7.5-7.5c0-4.1,3.4-7.5,7.5-7.5
								C565.5,459.4,568.9,462.8,568.9,466.9"/>
						</defs>
						<clipPath id="SVGID_28_">
							<use xlink:href="#SVGID_27_"  style="overflow:visible;"/>
						</clipPath>
						
							<radialGradient id="SVGID_29_" cx="-1.626420e-05" cy="767.9999" r="1" gradientTransform="matrix(7.5055 0 0 -7.5055 561.3752 6231.1255)" gradientUnits="userSpaceOnUse">
							<stop  offset="0" style="stop-color:#FFFFFF"/>
							<stop  offset="0.1099" style="stop-color:#FFFFFF"/>
							<stop  offset="0.9505" style="stop-color:#000000"/>
							<stop  offset="1" style="stop-color:#000000"/>
						</radialGradient>
						<rect x="553.9" y="459.4" class="st28" width="15" height="15"/>
					</g>
				</g>
			</g>
			<g class="st29">
				<g>
					<defs>
						<rect id="SVGID_30_" x="557.8" y="452.2" width="3.6" height="3.6"/>
					</defs>
					<clipPath id="SVGID_31_">
						<use xlink:href="#SVGID_30_"  style="overflow:visible;"/>
					</clipPath>
					<g class="st30">
						<defs>
							<path id="SVGID_32_" d="M561.4,454c0,1-0.8,1.8-1.8,1.8c-1,0-1.8-0.8-1.8-1.8c0-1,0.8-1.8,1.8-1.8
								C560.6,452.2,561.4,453,561.4,454"/>
						</defs>
						<clipPath id="SVGID_33_">
							<use xlink:href="#SVGID_32_"  style="overflow:visible;"/>
						</clipPath>
						
							<radialGradient id="SVGID_34_" cx="1.692346e-04" cy="767.9999" r="1" gradientTransform="matrix(1.8033 0 0 -1.8033 559.624 1838.8971)" gradientUnits="userSpaceOnUse">
							<stop  offset="0" style="stop-color:#FFFFFF"/>
							<stop  offset="0.1099" style="stop-color:#FFFFFF"/>
							<stop  offset="0.9505" style="stop-color:#000000"/>
							<stop  offset="1" style="stop-color:#000000"/>
						</radialGradient>
						<rect x="557.8" y="452.2" class="st31" width="3.6" height="3.6"/>
					</g>
				</g>
			</g>
			<g class="st29">
				<g>
					<defs>
						<rect id="SVGID_35_" x="556.3" y="466" width="5.6" height="5.6"/>
					</defs>
					<clipPath id="SVGID_36_">
						<use xlink:href="#SVGID_35_"  style="overflow:visible;"/>
					</clipPath>
					<g class="st32">
						<defs>
							<path id="SVGID_37_" d="M561.9,468.8c0,1.5-1.3,2.8-2.8,2.8c-1.5,0-2.8-1.3-2.8-2.8c0-1.5,1.3-2.8,2.8-2.8
								C560.7,466,561.9,467.2,561.9,468.8"/>
						</defs>
						<clipPath id="SVGID_38_">
							<use xlink:href="#SVGID_37_"  style="overflow:visible;"/>
						</clipPath>
						
							<radialGradient id="SVGID_39_" cx="-1.091056e-05" cy="768" r="1.0001" gradientTransform="matrix(2.7971 0 0 -2.7971 559.1286 2616.9194)" gradientUnits="userSpaceOnUse">
							<stop  offset="0" style="stop-color:#FFFFFF"/>
							<stop  offset="0.1099" style="stop-color:#FFFFFF"/>
							<stop  offset="0.9505" style="stop-color:#000000"/>
							<stop  offset="1" style="stop-color:#000000"/>
						</radialGradient>
						<rect x="556.3" y="466" class="st33" width="5.6" height="5.6"/>
					</g>
				</g>
			</g>
			<g class="st29">
				<g>
					<defs>
						<rect id="SVGID_40_" x="568.4" y="447.4" width="6.7" height="6.7"/>
					</defs>
					<clipPath id="SVGID_41_">
						<use xlink:href="#SVGID_40_"  style="overflow:visible;"/>
					</clipPath>
					<g class="st34">
						<defs>
							<path id="SVGID_42_" d="M575.1,450.8c0,1.9-1.5,3.4-3.4,3.4c-1.9,0-3.4-1.5-3.4-3.4c0-1.9,1.5-3.4,3.4-3.4
								C573.6,447.4,575.1,448.9,575.1,450.8"/>
						</defs>
						<clipPath id="SVGID_43_">
							<use xlink:href="#SVGID_42_"  style="overflow:visible;"/>
						</clipPath>
						
							<radialGradient id="SVGID_44_" cx="3.619790e-05" cy="768" r="1" gradientTransform="matrix(3.3723 0 0 -3.3723 571.7672 3040.6929)" gradientUnits="userSpaceOnUse">
							<stop  offset="0" style="stop-color:#FFFFFF"/>
							<stop  offset="0.1099" style="stop-color:#FFFFFF"/>
							<stop  offset="0.9505" style="stop-color:#000000"/>
							<stop  offset="1" style="stop-color:#000000"/>
						</radialGradient>
						<rect x="568.4" y="447.4" class="st35" width="6.7" height="6.7"/>
					</g>
				</g>
			</g>
			<g class="st19">
				<g>
					<defs>
						<rect id="SVGID_45_" x="569.9" y="457.1" width="1.4" height="1.4"/>
					</defs>
					<clipPath id="SVGID_46_">
						<use xlink:href="#SVGID_45_"  style="overflow:visible;"/>
					</clipPath>
					<g class="st36">
						<defs>
							<path id="SVGID_47_" d="M571.3,457.8c0,0.4-0.3,0.7-0.7,0.7c-0.4,0-0.7-0.3-0.7-0.7c0-0.4,0.3-0.7,0.7-0.7
								C570.9,457.1,571.3,457.4,571.3,457.8"/>
						</defs>
						<clipPath id="SVGID_48_">
							<use xlink:href="#SVGID_47_"  style="overflow:visible;"/>
						</clipPath>
						
							<radialGradient id="SVGID_49_" cx="4.418303e-05" cy="768" r="1.0001" gradientTransform="matrix(0.6907 0 0 -0.6907 570.5607 988.2772)" gradientUnits="userSpaceOnUse">
							<stop  offset="0" style="stop-color:#FFFFFF"/>
							<stop  offset="0.1099" style="stop-color:#FFFFFF"/>
							<stop  offset="0.9505" style="stop-color:#000000"/>
							<stop  offset="1" style="stop-color:#000000"/>
						</radialGradient>
						<rect x="569.9" y="457.1" class="st37" width="1.4" height="1.4"/>
					</g>
				</g>
			</g>
			<g class="st19">
				<g>
					<defs>
						<rect id="SVGID_50_" x="562.3" y="457.6" width="2.8" height="2.8"/>
					</defs>
					<clipPath id="SVGID_51_">
						<use xlink:href="#SVGID_50_"  style="overflow:visible;"/>
					</clipPath>
					<g class="st38">
						<defs>
							<path id="SVGID_52_" d="M565.2,459c0,0.8-0.6,1.4-1.4,1.4c-0.8,0-1.4-0.6-1.4-1.4c0-0.8,0.6-1.4,1.4-1.4
								C564.5,457.6,565.2,458.3,565.2,459"/>
						</defs>
						<clipPath id="SVGID_53_">
							<use xlink:href="#SVGID_52_"  style="overflow:visible;"/>
						</clipPath>
						
							<radialGradient id="SVGID_54_" cx="4.284382e-05" cy="768.0001" r="0.9999" gradientTransform="matrix(1.4246 0 0 -1.4246 563.7256 1553.1384)" gradientUnits="userSpaceOnUse">
							<stop  offset="0" style="stop-color:#FFFFFF"/>
							<stop  offset="0.1099" style="stop-color:#FFFFFF"/>
							<stop  offset="0.9505" style="stop-color:#000000"/>
							<stop  offset="1" style="stop-color:#000000"/>
						</radialGradient>
						<rect x="562.3" y="457.6" class="st39" width="2.8" height="2.8"/>
					</g>
				</g>
			</g>
			<g class="st29">
				<g>
					<defs>
						<rect id="SVGID_55_" x="569.5" y="451.3" width="19.8" height="19.8"/>
					</defs>
					<clipPath id="SVGID_56_">
						<use xlink:href="#SVGID_55_"  style="overflow:visible;"/>
					</clipPath>
					<g class="st40">
						<defs>
							<path id="SVGID_57_" d="M589.3,461.2c0,5.5-4.4,9.9-9.9,9.9c-5.5,0-9.9-4.4-9.9-9.9c0-5.5,4.4-9.9,9.9-9.9
								C584.8,451.3,589.3,455.7,589.3,461.2"/>
						</defs>
						<clipPath id="SVGID_58_">
							<use xlink:href="#SVGID_57_"  style="overflow:visible;"/>
						</clipPath>
						
							<radialGradient id="SVGID_59_" cx="-1.235524e-05" cy="768" r="1" gradientTransform="matrix(9.88 0 0 -9.88 579.3728 8049.0361)" gradientUnits="userSpaceOnUse">
							<stop  offset="0" style="stop-color:#FFFFFF"/>
							<stop  offset="0.1099" style="stop-color:#FFFFFF"/>
							<stop  offset="0.9505" style="stop-color:#000000"/>
							<stop  offset="1" style="stop-color:#000000"/>
						</radialGradient>
						<rect x="569.5" y="451.3" class="st41" width="19.8" height="19.8"/>
					</g>
				</g>
			</g>
			<g class="st19">
				<g>
					<defs>
						<rect id="SVGID_60_" x="562.6" y="456.7" width="24.4" height="24.8"/>
					</defs>
					<clipPath id="SVGID_61_">
						<use xlink:href="#SVGID_60_"  style="overflow:visible;"/>
					</clipPath>
					<g class="st42">
						<defs>
							<path id="SVGID_62_" d="M571.1,465.4c6.2-6.3,13.2-9.6,15.9-7.6c-0.1-0.1-0.2-0.2-0.2-0.3c-2.5-2.5-9.8,0.8-16.2,7.4
								c-6.4,6.6-9.6,13.9-7.1,16.4c0.1,0.1,0.2,0.2,0.3,0.2C561.7,478.8,564.9,471.7,571.1,465.4"/>
						</defs>
						<clipPath id="SVGID_63_">
							<use xlink:href="#SVGID_62_"  style="overflow:visible;"/>
						</clipPath>
						
							<linearGradient id="SVGID_64_" gradientUnits="userSpaceOnUse" x1="0" y1="768.0432" x2="1" y2="768.0432" gradientTransform="matrix(-23.7318 23.765 22.0219 22.0551 -16328.2266 -16482.5879)">
							<stop  offset="0" style="stop-color:#000000"/>
							<stop  offset="0.6044" style="stop-color:#FFFFFF"/>
							<stop  offset="0.9011" style="stop-color:#000000"/>
							<stop  offset="1" style="stop-color:#000000"/>
						</linearGradient>
						<polygon class="st43" points="600.3,468.3 574,494.6 547.7,468.3 574,442 						"/>
					</g>
				</g>
			</g>
			<g class="st44">
				<g>
					<defs>
						<rect id="SVGID_65_" x="561.6" y="443" width="14.4" height="38.5"/>
					</defs>
					<clipPath id="SVGID_66_">
						<use xlink:href="#SVGID_65_"  style="overflow:visible;"/>
					</clipPath>
					<g class="st45">
						<defs>
							<path id="SVGID_67_" d="M573,463.9c3.1-10.2,3.1-19.3,0.2-20.9c0.1,0,0.2,0,0.4,0.1c3.3,1,3.4,10.4,0.2,21
								c-3.2,10.6-8.5,18.4-11.7,17.3c-0.1,0-0.2-0.1-0.3-0.1C564.9,481.7,569.9,474.1,573,463.9"/>
						</defs>
						<clipPath id="SVGID_68_">
							<use xlink:href="#SVGID_67_"  style="overflow:visible;"/>
						</clipPath>
						
							<linearGradient id="SVGID_69_" gradientUnits="userSpaceOnUse" x1="0" y1="768.0422" x2="1" y2="768.0422" gradientTransform="matrix(-11.3989 38.8013 -28.9531 -8.5325 22811.9785 6997.2007)">
							<stop  offset="0" style="stop-color:#000000"/>
							<stop  offset="0.6044" style="stop-color:#FFFFFF"/>
							<stop  offset="0.9011" style="stop-color:#000000"/>
							<stop  offset="1" style="stop-color:#000000"/>
						</linearGradient>
						<polygon class="st46" points="562.8,438.9 550.9,479.3 575.6,486.6 587.5,446.2 						"/>
					</g>
				</g>
			</g>
			<g class="st47">
				<g>
					<defs>
						<rect id="SVGID_70_" x="552.3" y="461.8" width="34.6" height="12.8"/>
					</defs>
					<clipPath id="SVGID_71_">
						<use xlink:href="#SVGID_70_"  style="overflow:visible;"/>
					</clipPath>
					<g class="st48">
						<defs>
							<path id="SVGID_72_" d="M568.1,472.3c-9.2-2.5-16-7.1-15.6-10.5c-0.1,0.1-0.1,0.2-0.1,0.4c-0.9,3.4,6,8.3,15.5,10.9
								c9.5,2.6,18,1.9,18.9-1.5c0-0.1,0.1-0.2,0.1-0.4C585.5,474.3,577.3,474.8,568.1,472.3"/>
						</defs>
						<clipPath id="SVGID_73_">
							<use xlink:href="#SVGID_72_"  style="overflow:visible;"/>
						</clipPath>
						
							<linearGradient id="SVGID_74_" gradientUnits="userSpaceOnUse" x1="0" y1="768.0331" x2="1" y2="768.0331" gradientTransform="matrix(34.7169 9.815 8.5658 -29.9673 -6026.6396 23479.8027)">
							<stop  offset="0" style="stop-color:#000000"/>
							<stop  offset="0.6044" style="stop-color:#FFFFFF"/>
							<stop  offset="0.9011" style="stop-color:#000000"/>
							<stop  offset="1" style="stop-color:#000000"/>
						</linearGradient>
						<polygon class="st49" points="554.1,452.5 590.6,462.8 584.2,484.9 547.7,474.6 						"/>
					</g>
				</g>
			</g>
			<g class="st19">
				<g>
					<defs>
						<rect id="SVGID_75_" x="552.8" y="450.1" width="32.7" height="11.5"/>
					</defs>
					<clipPath id="SVGID_76_">
						<use xlink:href="#SVGID_75_"  style="overflow:visible;"/>
					</clipPath>
					<g class="st50">
						<defs>
							<path id="SVGID_77_" d="M567.8,451.7c8.7-1.9,16.4-0.5,17.6,2.9c0-0.1,0-0.3-0.1-0.4c-0.8-3.7-8.7-5.2-17.7-3.3
								c-9,1.9-15.6,6.5-14.8,10.2c0,0.1,0.1,0.3,0.1,0.4C552.7,457.9,559.2,453.5,567.8,451.7"/>
						</defs>
						<clipPath id="SVGID_78_">
							<use xlink:href="#SVGID_77_"  style="overflow:visible;"/>
						</clipPath>
						
							<linearGradient id="SVGID_79_" gradientUnits="userSpaceOnUse" x1="0" y1="768.022" x2="1" y2="768.022" gradientTransform="matrix(-32.9152 6.678 6.678 32.9152 -4544.2432 -24827.5449)">
							<stop  offset="0" style="stop-color:#000000"/>
							<stop  offset="0.6044" style="stop-color:#FFFFFF"/>
							<stop  offset="0.9011" style="stop-color:#000000"/>
							<stop  offset="1" style="stop-color:#000000"/>
						</linearGradient>
						<polygon class="st51" points="587.9,461 553.4,468 549.6,449.5 584.1,442.5 						"/>
					</g>
				</g>
			</g>
			<g class="st19">
				<g>
					<defs>
						<rect id="SVGID_80_" x="556.1" y="445.2" width="28.1" height="34"/>
					</defs>
					<clipPath id="SVGID_81_">
						<use xlink:href="#SVGID_80_"  style="overflow:visible;"/>
					</clipPath>
					<g class="st52">
						<defs>
							<path id="SVGID_82_" d="M576.9,456.6c6.5,8.6,8.1,18.5,3.6,22.6c0.2-0.1,0.4-0.2,0.6-0.4c5-3.8,3.6-14.2-3.1-23.1
								c-6.8-8.9-16.4-13-21.4-9.1c-0.2,0.1-0.3,0.3-0.5,0.4C561.2,443.9,570.4,448,576.9,456.6"/>
						</defs>
						<clipPath id="SVGID_83_">
							<use xlink:href="#SVGID_82_"  style="overflow:visible;"/>
						</clipPath>
						
							<linearGradient id="SVGID_84_" gradientUnits="userSpaceOnUse" x1="0" y1="768.0433" x2="1" y2="768.0433" gradientTransform="matrix(-24.3052 -32.8383 -44.5682 33.4226 34813.2266 -25193.0273)">
							<stop  offset="0" style="stop-color:#000000"/>
							<stop  offset="0.6044" style="stop-color:#FFFFFF"/>
							<stop  offset="0.9011" style="stop-color:#000000"/>
							<stop  offset="1" style="stop-color:#000000"/>
						</linearGradient>
						<polygon class="st53" points="566.8,493.7 538.7,455.8 575.4,428.3 603.5,466.2 						"/>
					</g>
				</g>
			</g>
			<g class="st19">
				<g>
					<defs>
						<rect id="SVGID_85_" x="558.3" y="443.7" width="9.1" height="38.4"/>
					</defs>
					<clipPath id="SVGID_86_">
						<use xlink:href="#SVGID_85_"  style="overflow:visible;"/>
					</clipPath>
					<g class="st54">
						<defs>
							<path id="SVGID_87_" d="M559.3,463.2c-0.3-10.2,2.8-18.7,7-19.4c-0.2,0-0.3,0-0.5,0c-4.4,0.1-7.8,8.8-7.4,19.4
								c0.3,10.6,4.2,19.1,8.6,18.9c0.2,0,0.3,0,0.5-0.1C563.2,481.6,559.6,473.4,559.3,463.2"/>
						</defs>
						<clipPath id="SVGID_88_">
							<use xlink:href="#SVGID_87_"  style="overflow:visible;"/>
						</clipPath>
						
							<linearGradient id="SVGID_89_" gradientUnits="userSpaceOnUse" x1="0" y1="768.001" x2="1" y2="768.001" gradientTransform="matrix(0.8146 38.761 39.0555 -0.8288 -29432.332 1080.7369)">
							<stop  offset="0" style="stop-color:#000000"/>
							<stop  offset="0.6044" style="stop-color:#FFFFFF"/>
							<stop  offset="0.9011" style="stop-color:#000000"/>
							<stop  offset="1" style="stop-color:#000000"/>
						</linearGradient>
						<polygon class="st55" points="567.5,443.5 568.3,482.3 558,482.5 557.2,443.7 						"/>
					</g>
				</g>
			</g>
			<g class="st47">
				<g>
					<defs>
						<rect id="SVGID_90_" x="556.4" y="464.9" width="32.2" height="15.7"/>
					</defs>
					<clipPath id="SVGID_91_">
						<use xlink:href="#SVGID_90_"  style="overflow:visible;"/>
					</clipPath>
					<g class="st56">
						<defs>
							<path id="SVGID_92_" d="M574.9,477.7c-8.5,3.1-16.5,2.4-18.4-1.4c0,0.2,0.1,0.3,0.1,0.5c1.5,4.2,9.8,5,18.6,1.8
								c8.8-3.2,14.7-9.1,13.2-13.3c-0.1-0.1-0.1-0.3-0.2-0.4C589.2,469,583.4,474.7,574.9,477.7"/>
						</defs>
						<clipPath id="SVGID_93_">
							<use xlink:href="#SVGID_92_"  style="overflow:visible;"/>
						</clipPath>
						
							<linearGradient id="SVGID_94_" gradientUnits="userSpaceOnUse" x1="0" y1="768.0334" x2="1" y2="768.0334" gradientTransform="matrix(32.2398 -11.1875 -12.9045 -36.8682 10468.6719 28794.7617)">
							<stop  offset="0" style="stop-color:#000000"/>
							<stop  offset="0.6044" style="stop-color:#FFFFFF"/>
							<stop  offset="0.9011" style="stop-color:#000000"/>
							<stop  offset="1" style="stop-color:#000000"/>
						</linearGradient>
						<polygon class="st57" points="551.2,466.7 586.3,454.5 595.2,480 560.1,492.1 						"/>
					</g>
				</g>
			</g>
			<g class="st19">
				<g>
					<defs>
						<rect id="SVGID_95_" x="556.4" y="444" width="25.3" height="12.9"/>
					</defs>
					<clipPath id="SVGID_96_">
						<use xlink:href="#SVGID_95_"  style="overflow:visible;"/>
					</clipPath>
					<g class="st58">
						<defs>
							<path id="SVGID_97_" d="M581.7,450.5c0,3.6-5.7,6.4-12.7,6.4c-7,0-12.7-2.9-12.7-6.4c0-3.6,5.7-6.4,12.7-6.4
								C576,444,581.7,446.9,581.7,450.5"/>
						</defs>
						<clipPath id="SVGID_98_">
							<use xlink:href="#SVGID_97_"  style="overflow:visible;"/>
						</clipPath>
						
							<linearGradient id="SVGID_99_" gradientUnits="userSpaceOnUse" x1="1.069103e-05" y1="768" x2="1" y2="768" gradientTransform="matrix(0 17.127 35.5294 0 -26717.543 444.0136)">
							<stop  offset="0" style="stop-color:#FFFFFF"/>
							<stop  offset="1" style="stop-color:#000000"/>
						</linearGradient>
						<rect x="556.4" y="444" class="st59" width="25.3" height="12.9"/>
					</g>
				</g>
			</g>
		</g>
		<g class="st10">
			<defs>
				<rect id="SVGID_100_" x="628.2" y="440.4" width="48" height="48"/>
			</defs>
			<clipPath id="SVGID_101_">
				<use xlink:href="#SVGID_100_"  style="overflow:visible;"/>
			</clipPath>
			<g class="st60">
				<defs>
					<path id="SVGID_102_" d="M652.2,488.2c-13.1,0-23.8-10.7-23.8-23.8c0-13.1,10.7-23.7,23.8-23.7s23.8,10.7,23.8,23.7
						C675.9,477.5,665.3,488.2,652.2,488.2"/>
				</defs>
				<clipPath id="SVGID_103_">
					<use xlink:href="#SVGID_102_"  style="overflow:visible;"/>
				</clipPath>
				
					<linearGradient id="SVGID_104_" gradientUnits="userSpaceOnUse" x1="0" y1="768" x2="1" y2="768" gradientTransform="matrix(17.768 42.6732 42.6732 -17.768 -32128.3242 14092.2354)">
					<stop  offset="0" style="stop-color:#FFFFFF"/>
					<stop  offset="1" style="stop-color:#D4D6D7"/>
				</linearGradient>
				<polygon class="st61" points="668.9,423.8 692.8,481.2 635.5,505 611.6,447.7 				"/>
			</g>
			<path class="st62" d="M652.2,440.9c13,0,23.5,10.5,23.5,23.5c0,13-10.5,23.5-23.5,23.5s-23.5-10.5-23.5-23.5
				C628.7,451.5,639.2,440.9,652.2,440.9 M652.2,440.4c-13.3,0-24,10.7-24,24c0,13.3,10.7,24,24,24s24-10.7,24-24
				C676.2,451.2,665.4,440.4,652.2,440.4"/>
			<g class="st60">
				<defs>
					<path id="SVGID_105_" d="M669.7,464.4c0,9.7-7.8,17.5-17.5,17.5s-17.5-7.8-17.5-17.5s7.8-17.5,17.5-17.5
						S669.7,454.8,669.7,464.4"/>
				</defs>
				<clipPath id="SVGID_106_">
					<use xlink:href="#SVGID_105_"  style="overflow:visible;"/>
				</clipPath>
				
					<linearGradient id="SVGID_107_" gradientUnits="userSpaceOnUse" x1="0" y1="768" x2="1" y2="768" gradientTransform="matrix(-23.9576 -29.8359 -29.8359 23.9576 23580.8281 -17916.7246)">
					<stop  offset="0" style="stop-color:#FFFFFF"/>
					<stop  offset="1" style="stop-color:#B8BABC"/>
				</linearGradient>
				<polygon class="st63" points="648.4,499 617.6,460.7 656,429.8 686.8,468.2 				"/>
			</g>
			<g class="st60">
				<defs>
					<path id="SVGID_108_" d="M652.2,478.9c-8,0-14.5-6.5-14.5-14.5c0-8,6.5-14.5,14.5-14.5s14.5,6.5,14.5,14.5
						C666.7,472.4,660.2,478.9,652.2,478.9"/>
				</defs>
				<clipPath id="SVGID_109_">
					<use xlink:href="#SVGID_108_"  style="overflow:visible;"/>
				</clipPath>
			</g>
			<path class="st64" d="M652.2,450.4c7.7,0,14,6.3,14,14c0,7.7-6.3,14-14,14s-14-6.3-14-14C638.2,456.7,644.5,450.4,652.2,450.4
				 M652.2,449.4c-8.3,0-15,6.7-15,15s6.7,15,15,15c8.3,0,15-6.7,15-15S660.5,449.4,652.2,449.4"/>
			<g class="st65">
				<g>
					<defs>
						<rect id="SVGID_110_" x="637.3" y="452.4" width="29.8" height="27"/>
					</defs>
					<clipPath id="SVGID_111_">
						<use xlink:href="#SVGID_110_"  style="overflow:visible;"/>
					</clipPath>
					<g class="st66">
						<defs>
							<path id="SVGID_112_" d="M661.1,452.4c0.1,0.7,0.2,1.4,0.2,2c0,8.3-6.7,15-15,15c-3.3,0-6.4-1.1-8.9-3c1,7.3,7.3,13,14.8,13
								c8.3,0,15-6.7,15-15C667.2,459.5,664.8,455.1,661.1,452.4"/>
						</defs>
						<clipPath id="SVGID_113_">
							<use xlink:href="#SVGID_112_"  style="overflow:visible;"/>
						</clipPath>
						
							<linearGradient id="SVGID_114_" gradientUnits="userSpaceOnUse" x1="0" y1="767.9688" x2="1" y2="767.9688" gradientTransform="matrix(10.8241 18.6692 18.6692 -10.8241 -13688.042 8773.4082)">
							<stop  offset="0" style="stop-color:#FFFFFF"/>
							<stop  offset="1" style="stop-color:#B7C6CE"/>
						</linearGradient>
						<polygon class="st67" points="659.7,439.4 678.9,472.6 644.9,492.4 625.6,459.2 						"/>
					</g>
				</g>
			</g>
		</g>
	</g>
</g>
</svg>
