<svg width="256" height="479" viewBox="0 0 256 479" fill="none" xmlns="http://www.w3.org/2000/svg">
<rect y="85" width="256" height="307" rx="50" fill="#6A6998"/>
<rect x="12" y="96" width="230" height="279" rx="50" fill="#CCBDBE"/>
<path d="M97.2363 330.892C96.958 330.892 96.8188 330.804 96.8188 330.628C96.8188 330.609 96.8529 330.501 96.9209 330.303C97.2394 329.403 97.442 328.814 97.5286 328.536C97.6182 328.258 97.6739 328.1 97.6956 328.063C97.7172 328.026 97.7373 327.996 97.7559 327.975C97.7744 327.953 97.8053 327.938 97.8486 327.928C97.9043 327.916 97.9847 327.91 98.0898 327.91C98.2661 327.91 98.3542 328.004 98.3542 328.193V328.271C98.5243 328.346 99.1768 328.383 100.312 328.383H106.509C107.765 328.383 108.403 328.332 108.425 328.23C108.434 328.115 108.459 328.033 108.499 327.984C108.542 327.934 108.629 327.91 108.759 327.91C108.892 327.91 108.983 327.927 109.032 327.961C109.085 327.995 109.111 328.066 109.111 328.174L108.94 330.684C108.94 330.77 108.907 330.827 108.842 330.855C108.777 330.88 108.691 330.892 108.583 330.892C108.477 330.892 108.406 330.888 108.369 330.878C108.332 330.866 108.304 330.844 108.286 330.813C108.264 330.776 108.253 330.707 108.253 330.605L108.369 329.106C108.255 329.057 107.596 329.032 106.393 329.032H104.38C104.287 329.032 104.224 329.139 104.19 329.352C104.06 330.212 103.771 332.233 103.322 335.415C102.874 338.594 102.65 340.225 102.65 340.309C102.65 340.389 102.682 340.429 102.747 340.429H103.962C104.071 340.429 104.142 340.451 104.176 340.494C104.21 340.538 104.227 340.626 104.227 340.759C104.227 340.892 104.21 340.985 104.176 341.037C104.142 341.09 104.071 341.116 103.962 341.116L101.68 341.056L99.5325 341.116C99.4057 341.116 99.3268 341.091 99.2959 341.042C99.265 340.995 99.2495 340.898 99.2495 340.75C99.2495 340.598 99.2696 340.507 99.3098 340.476C99.3531 340.445 99.4536 340.429 99.6113 340.429H100.655C100.819 340.111 101.161 338.178 101.68 334.631C102.2 331.081 102.459 329.277 102.459 329.218V329.116C102.459 329.06 102.441 329.032 102.404 329.032H99.8015C98.6728 329.032 98.0898 329.088 98.0527 329.199L97.5981 330.531C97.5456 330.673 97.4976 330.769 97.4543 330.818C97.4141 330.868 97.3415 330.892 97.2363 330.892ZM108.689 338.681C108.998 337.682 109.223 336.901 109.362 336.338C109.504 335.772 109.575 335.379 109.575 335.16C109.575 334.937 109.513 334.826 109.39 334.826C109.266 334.826 109.087 334.92 108.852 335.109C108.62 335.294 108.405 335.48 108.207 335.666C108.012 335.851 107.887 335.944 107.831 335.944C107.775 335.944 107.717 335.911 107.655 335.846C107.593 335.778 107.562 335.715 107.562 335.656C107.562 335.597 107.681 335.463 107.919 335.253C108.16 335.042 108.437 334.82 108.75 334.585C109.569 333.972 110.136 333.666 110.452 333.666C110.767 333.666 110.925 333.824 110.925 334.139C110.925 334.504 110.719 335.468 110.308 337.029C109.897 338.591 109.691 339.427 109.691 339.539C109.691 339.65 109.693 339.723 109.696 339.757C109.708 339.85 109.765 339.896 109.867 339.896C109.969 339.896 110.135 339.795 110.364 339.594C110.596 339.39 110.814 339.188 111.018 338.987C111.225 338.783 111.35 338.681 111.394 338.681C111.44 338.681 111.497 338.716 111.565 338.787C111.633 338.858 111.667 338.933 111.667 339.01C111.667 339.087 111.468 339.307 111.069 339.669C110.673 340.027 110.234 340.368 109.751 340.689C109.272 341.011 108.935 341.172 108.74 341.172C108.397 341.172 108.225 341.039 108.225 340.773C108.225 340.377 108.38 339.68 108.689 338.681ZM110.392 331.537C110.135 331.537 109.925 331.435 109.761 331.231C109.6 331.024 109.52 330.795 109.52 330.544C109.52 330.294 109.594 330.081 109.742 329.904C109.891 329.728 110.098 329.64 110.364 329.64C110.63 329.64 110.843 329.743 111.004 329.951C111.168 330.155 111.25 330.381 111.25 330.628C111.25 330.875 111.171 331.089 111.013 331.268C110.855 331.447 110.648 331.537 110.392 331.537ZM114.283 341.056L112.688 341.116C112.564 341.116 112.485 341.09 112.451 341.037C112.42 340.985 112.405 340.893 112.405 340.763C112.405 340.63 112.431 340.542 112.484 340.499C112.536 340.453 112.643 340.429 112.804 340.429H113.393C113.517 340.117 113.841 338.254 114.367 334.84C114.896 331.426 115.16 329.586 115.16 329.32C115.16 329.051 115.122 328.916 115.044 328.916H113.963C113.772 328.916 113.676 328.802 113.676 328.573C113.676 328.425 113.708 328.33 113.773 328.29C113.841 328.25 113.948 328.23 114.093 328.23L116.032 328.29C116.032 328.29 116.621 328.27 117.8 328.23C117.926 328.23 118.005 328.254 118.036 328.304C118.067 328.353 118.083 328.454 118.083 328.605C118.083 328.754 118.062 328.844 118.022 328.875C117.982 328.902 117.883 328.916 117.725 328.916H117.02C116.853 329.065 116.575 330.356 116.185 332.79C116.055 333.6 115.983 334.091 115.967 334.265C115.955 334.435 116.021 334.52 116.167 334.52H117.094C117.187 334.52 117.772 333.832 118.848 332.456C119.924 331.079 120.629 330.158 120.963 329.691C121.297 329.221 121.464 328.975 121.464 328.953C121.464 328.929 121.395 328.916 121.255 328.916H120.819C120.683 328.916 120.586 328.896 120.527 328.856C120.468 328.816 120.439 328.721 120.439 328.573C120.439 328.425 120.465 328.33 120.518 328.29C120.57 328.25 120.659 328.23 120.782 328.23L122.169 328.29L123.691 328.23C123.821 328.23 123.906 328.256 123.946 328.309C123.989 328.361 124.011 328.46 124.011 328.605C124.011 328.751 123.984 328.839 123.932 328.87C123.882 328.901 123.776 328.916 123.612 328.916H122.55C121.594 330.197 120.213 331.843 118.407 333.856C118.219 334.07 118.124 334.187 118.124 334.209C118.124 334.228 118.222 334.328 118.417 334.51C118.614 334.69 118.917 335.024 119.326 335.512C119.734 335.998 120.09 336.445 120.393 336.853C120.699 337.261 121.113 337.826 121.636 338.546C122.158 339.267 122.499 339.734 122.656 339.947C122.894 340.269 123.149 340.429 123.422 340.429H123.992C124.097 340.429 124.161 340.45 124.182 340.49C124.207 340.527 124.219 340.595 124.219 340.694C124.219 340.793 124.218 340.858 124.215 340.889C124.215 340.917 124.212 340.951 124.206 340.991C124.199 341.028 124.187 341.053 124.168 341.065C124.131 341.099 124.073 341.116 123.992 341.116L121.789 341.056L120.267 341.116C120.141 341.116 120.062 341.091 120.031 341.042C120 340.995 119.984 340.898 119.984 340.75C119.984 340.601 120.009 340.511 120.059 340.48C120.111 340.446 120.219 340.429 120.383 340.429H120.536C120.75 340.429 120.856 340.406 120.856 340.36C120.856 340.31 120.787 340.194 120.648 340.012C118.26 336.657 117.026 334.979 116.946 334.979H116.014C115.915 334.979 115.858 335.022 115.842 335.109C115.783 335.536 115.689 336.179 115.559 337.039C115.278 338.928 115.137 340.007 115.137 340.276L115.16 340.429H116.431C116.539 340.429 116.611 340.451 116.645 340.494C116.679 340.538 116.696 340.626 116.696 340.759C116.696 340.892 116.679 340.985 116.645 341.037C116.611 341.09 116.539 341.116 116.431 341.116L114.283 341.056ZM129.095 330.892C128.816 330.892 128.677 330.804 128.677 330.628C128.677 330.609 128.711 330.501 128.779 330.303C129.098 329.403 129.3 328.814 129.387 328.536C129.477 328.258 129.532 328.1 129.554 328.063C129.576 328.026 129.596 327.996 129.614 327.975C129.633 327.953 129.664 327.938 129.707 327.928C129.763 327.916 129.843 327.91 129.948 327.91C130.125 327.91 130.213 328.004 130.213 328.193V328.271C130.383 328.346 131.035 328.383 132.17 328.383H138.367C139.623 328.383 140.262 328.332 140.283 328.23C140.292 328.115 140.317 328.033 140.357 327.984C140.401 327.934 140.487 327.91 140.617 327.91C140.75 327.91 140.841 327.927 140.891 327.961C140.943 327.995 140.97 328.066 140.97 328.174L140.798 330.684C140.798 330.77 140.766 330.827 140.701 330.855C140.636 330.88 140.549 330.892 140.441 330.892C140.336 330.892 140.265 330.888 140.228 330.878C140.19 330.866 140.163 330.844 140.144 330.813C140.122 330.776 140.112 330.707 140.112 330.605L140.228 329.106C140.113 329.057 139.454 329.032 138.251 329.032H136.238C136.146 329.032 136.082 329.139 136.048 329.352C135.918 330.212 135.629 332.233 135.181 335.415C134.732 338.594 134.508 340.225 134.508 340.309C134.508 340.389 134.541 340.429 134.605 340.429H135.821C135.929 340.429 136 340.451 136.034 340.494C136.068 340.538 136.085 340.626 136.085 340.759C136.085 340.892 136.068 340.985 136.034 341.037C136 341.09 135.929 341.116 135.821 341.116L133.539 341.056L131.391 341.116C131.264 341.116 131.185 341.091 131.154 341.042C131.123 340.995 131.108 340.898 131.108 340.75C131.108 340.598 131.128 340.507 131.168 340.476C131.212 340.445 131.312 340.429 131.47 340.429H132.513C132.677 340.111 133.019 338.178 133.539 334.631C134.058 331.081 134.318 329.277 134.318 329.218V329.116C134.318 329.06 134.299 329.032 134.262 329.032H131.66C130.531 329.032 129.948 329.088 129.911 329.199L129.457 330.531C129.404 330.673 129.356 330.769 129.313 330.818C129.273 330.868 129.2 330.892 129.095 330.892ZM144.342 341.264C143.962 341.264 143.771 341.094 143.771 340.754C143.771 340.352 144.076 339.168 144.685 337.201C143.986 338.364 143.366 339.225 142.825 339.785C142.287 340.341 141.953 340.675 141.823 340.787C141.477 341.077 141.129 341.23 140.78 341.246C140.758 341.246 140.736 341.246 140.715 341.246C140.306 341.246 139.988 341.116 139.759 340.856C139.533 340.593 139.42 340.284 139.42 339.928C139.42 339.573 139.45 339.208 139.509 338.834C139.567 338.46 139.657 338.071 139.778 337.669C139.901 337.264 140.05 336.868 140.223 336.482C140.396 336.092 140.605 335.723 140.849 335.373C141.097 335.024 141.362 334.716 141.647 334.45C142.269 333.878 142.983 333.592 143.79 333.592C143.914 333.592 144.093 333.648 144.328 333.759C144.563 333.87 144.719 333.982 144.797 334.093C144.874 334.201 144.94 334.302 144.996 334.395C145.114 334.58 145.182 334.673 145.2 334.673C145.25 334.673 145.338 334.413 145.465 333.894C145.502 333.73 145.799 333.648 146.355 333.648C146.559 333.648 146.661 333.693 146.661 333.782C146.661 333.869 146.533 334.357 146.276 335.248C145.506 337.92 145.121 339.401 145.121 339.692C145.121 339.983 145.191 340.128 145.33 340.128C145.423 340.128 145.639 339.95 145.979 339.594C146.32 339.239 146.514 339.061 146.564 339.061C146.613 339.061 146.666 339.095 146.722 339.163C146.78 339.228 146.81 339.291 146.81 339.353C146.81 339.412 146.72 339.54 146.541 339.738C146.361 339.933 146.148 340.145 145.901 340.374C145.653 340.603 145.381 340.808 145.084 340.991C144.787 341.173 144.54 341.264 144.342 341.264ZM141.563 336.245C141.341 336.74 141.158 337.255 141.016 337.79C140.877 338.325 140.807 338.724 140.807 338.987C140.807 339.25 140.81 339.426 140.817 339.516C140.826 339.605 140.846 339.703 140.877 339.808C140.936 340.021 141.064 340.128 141.262 340.128C141.463 340.128 141.707 340.014 141.995 339.785C142.286 339.556 142.587 339.259 142.899 338.894C143.543 338.133 144.118 337.334 144.625 336.496C144.715 336.347 144.784 336.165 144.834 335.948C144.886 335.732 144.913 335.565 144.913 335.448C144.913 335.33 144.857 335.203 144.746 335.067C144.634 334.931 144.495 334.821 144.328 334.738C143.972 334.555 143.637 334.464 143.322 334.464C143.009 334.464 142.694 334.637 142.375 334.984C142.06 335.33 141.789 335.751 141.563 336.245ZM149.24 341.056L147.645 341.116C147.521 341.116 147.442 341.09 147.408 341.037C147.377 340.985 147.362 340.893 147.362 340.763C147.362 340.63 147.388 340.542 147.441 340.499C147.493 340.453 147.6 340.429 147.761 340.429H148.35C148.474 340.117 148.798 338.254 149.324 334.84C149.853 331.426 150.117 329.586 150.117 329.32C150.117 329.051 150.079 328.916 150.001 328.916H148.92C148.729 328.916 148.633 328.802 148.633 328.573C148.633 328.425 148.665 328.33 148.73 328.29C148.798 328.25 148.905 328.23 149.05 328.23L150.989 328.29C150.989 328.29 151.578 328.27 152.757 328.23C152.883 328.23 152.962 328.254 152.993 328.304C153.024 328.353 153.04 328.454 153.04 328.605C153.04 328.754 153.019 328.844 152.979 328.875C152.939 328.902 152.84 328.916 152.682 328.916H151.977C151.81 329.065 151.532 330.356 151.142 332.79C151.012 333.6 150.94 334.091 150.924 334.265C150.912 334.435 150.978 334.52 151.124 334.52H152.052C152.144 334.52 152.729 333.832 153.805 332.456C154.881 331.079 155.586 330.158 155.92 329.691C156.254 329.221 156.421 328.975 156.421 328.953C156.421 328.929 156.352 328.916 156.212 328.916H155.776C155.64 328.916 155.543 328.896 155.484 328.856C155.425 328.816 155.396 328.721 155.396 328.573C155.396 328.425 155.422 328.33 155.475 328.29C155.527 328.25 155.616 328.23 155.739 328.23L157.126 328.29L158.648 328.23C158.778 328.23 158.863 328.256 158.903 328.309C158.946 328.361 158.968 328.46 158.968 328.605C158.968 328.751 158.941 328.839 158.889 328.87C158.839 328.901 158.733 328.916 158.569 328.916H157.507C156.551 330.197 155.17 331.843 153.364 333.856C153.176 334.07 153.081 334.187 153.081 334.209C153.081 334.228 153.179 334.328 153.374 334.51C153.571 334.69 153.875 335.024 154.283 335.512C154.691 335.998 155.047 336.445 155.35 336.853C155.656 337.261 156.07 337.826 156.593 338.546C157.115 339.267 157.456 339.734 157.613 339.947C157.851 340.269 158.107 340.429 158.379 340.429H158.949C159.054 340.429 159.118 340.45 159.139 340.49C159.164 340.527 159.177 340.595 159.177 340.694C159.177 340.793 159.175 340.858 159.172 340.889C159.172 340.917 159.169 340.951 159.163 340.991C159.156 341.028 159.144 341.053 159.125 341.065C159.088 341.099 159.03 341.116 158.949 341.116L156.746 341.056L155.224 341.116C155.098 341.116 155.019 341.091 154.988 341.042C154.957 340.995 154.941 340.898 154.941 340.75C154.941 340.601 154.966 340.511 155.016 340.48C155.068 340.446 155.176 340.429 155.34 340.429H155.493C155.707 340.429 155.813 340.406 155.813 340.36C155.813 340.31 155.744 340.194 155.605 340.012C153.217 336.657 151.983 334.979 151.903 334.979H150.971C150.872 334.979 150.815 335.022 150.799 335.109C150.74 335.536 150.646 336.179 150.516 337.039C150.235 338.928 150.094 340.007 150.094 340.276L150.117 340.429H151.388C151.496 340.429 151.568 340.451 151.602 340.494C151.636 340.538 151.653 340.626 151.653 340.759C151.653 340.892 151.636 340.985 151.602 341.037C151.568 341.09 151.496 341.116 151.388 341.116L149.24 341.056Z" fill="black"/>
<path d="M56 435.5C56 426.111 63.6112 418.5 73 418.5H187C196.389 418.5 204 426.111 204 435.5V461.5C204 470.889 196.389 478.5 187 478.5H73C63.6112 478.5 56 470.889 56 461.5V435.5Z" fill="#E8C3C5"/>
<rect x="59" width="147" height="60" rx="20" fill="#E8C3C5"/>
<path d="M73.8201 145.073L70.7683 145.153C70.5974 145.153 70.4875 145.12 70.4387 145.055C70.394 144.99 70.3716 144.864 70.3716 144.677C70.3716 144.485 70.4021 144.367 70.4631 144.323C70.5282 144.274 70.6625 144.249 70.866 144.249H72.3674C72.5017 144.249 72.5688 141.84 72.5688 137.023V131.249C72.5688 129.816 72.5282 129.1 72.4468 129.1H70.9697C70.7948 129.1 70.6788 129.072 70.6218 129.015C70.5689 128.958 70.5425 128.834 70.5425 128.643C70.5425 128.451 70.573 128.329 70.634 128.276C70.6991 128.223 70.8354 128.197 71.043 128.197L73.8689 128.276C73.8689 128.276 74.8699 128.25 76.8718 128.197C77.0753 128.197 77.1994 128.223 77.2441 128.276C77.293 128.329 77.3174 128.449 77.3174 128.636C77.3174 128.82 77.2889 128.944 77.2319 129.009C77.175 129.07 77.0448 129.1 76.8413 129.1H75.0957C74.9614 129.1 74.8943 130.866 74.8943 134.398V141.326C74.8943 143.21 74.9451 144.152 75.0469 144.152C76.6379 144.152 78.2268 144.129 79.8137 144.084C81.4657 144.036 82.3548 144.007 82.481 143.999C82.6112 143.987 82.6946 143.96 82.7312 143.92C82.7719 143.875 82.8085 143.735 82.8411 143.499L83.1462 141.35C83.1707 141.171 83.2642 141.092 83.427 141.112C83.5898 141.128 83.7078 141.145 83.781 141.161C83.9722 141.202 84.0679 141.289 84.0679 141.423C84.0679 141.493 83.9865 142.026 83.8237 143.022C83.661 144.015 83.5694 144.597 83.5491 144.768C83.5328 144.935 83.484 145.041 83.4026 145.085C83.3212 145.13 83.1605 145.153 82.9204 145.153L73.8201 145.073ZM85.9417 136.174L84.7148 136.199C84.5806 136.199 84.5134 136.158 84.5134 136.077C84.5134 135.682 84.6131 135.472 84.8125 135.448C84.841 135.444 84.8613 135.442 84.8735 135.442C84.9468 135.43 85.3618 135.407 86.1187 135.375C86.8796 135.342 87.3861 135.326 87.6384 135.326C87.8907 135.326 88.025 135.342 88.0413 135.375C88.0575 135.403 88.0657 135.462 88.0657 135.552V142.351C88.0657 143.417 88.9649 143.95 90.7634 143.95C91.2273 143.95 91.7095 143.918 92.21 143.853C92.7145 143.783 92.9668 143.708 92.9668 143.627V140.673C92.9668 137.625 92.8997 136.101 92.7654 136.101L91.5142 136.15C91.3799 136.15 91.3127 136.125 91.3127 136.077C91.3127 135.715 91.3473 135.511 91.4165 135.466C91.4857 135.422 91.5772 135.399 91.6912 135.399L94.5903 135.277C94.7572 135.277 94.8406 135.318 94.8406 135.399V135.503C94.8243 139.482 94.8162 141.838 94.8162 142.571C94.8162 143.299 94.8263 143.759 94.8467 143.95C94.8711 144.141 94.9097 144.27 94.9626 144.335C95.0155 144.396 95.099 144.426 95.2129 144.426L96.3115 144.274C96.4132 144.274 96.4641 144.375 96.4641 144.579C96.4641 144.782 96.4499 144.906 96.4214 144.951C96.3929 144.992 95.8436 145.09 94.7734 145.244C93.7074 145.399 93.158 145.476 93.1255 145.476C93.0929 145.476 93.0665 145.264 93.0461 144.841C93.0258 144.414 93.0095 144.2 92.9973 144.2C92.9892 144.2 92.9017 144.241 92.7349 144.323C92.5721 144.4 92.3524 144.495 92.0757 144.609C91.8031 144.719 91.502 144.829 91.1724 144.939C89.8906 145.378 88.8042 145.472 87.9131 145.22C86.7453 144.886 86.1614 143.796 86.1614 141.948V138.024C86.1614 136.791 86.0881 136.174 85.9417 136.174ZM99.1436 136.321L97.6055 136.425C97.5241 136.425 97.4834 136.386 97.4834 136.309C97.4834 136.231 97.518 136.105 97.5872 135.93C97.6563 135.751 97.7072 135.651 97.7397 135.631C97.7764 135.607 97.8618 135.59 97.9961 135.582C98.1304 135.57 98.5678 135.542 99.3083 135.497C100.053 135.448 100.499 135.417 100.645 135.405C100.792 135.393 100.879 135.391 100.907 135.399C100.936 135.403 100.96 135.405 100.981 135.405C101.005 135.401 101.025 135.405 101.042 135.417C101.058 135.43 101.072 135.438 101.084 135.442C101.097 135.442 101.105 135.452 101.109 135.472C101.117 135.489 101.123 135.501 101.127 135.509C101.131 135.517 101.133 135.533 101.133 135.558V136.602C101.133 136.699 101.143 136.748 101.164 136.748C101.188 136.748 101.209 136.742 101.225 136.73C101.241 136.718 101.257 136.705 101.274 136.693C101.323 136.656 101.373 136.622 101.426 136.589C101.483 136.553 101.605 136.471 101.792 136.345C101.98 136.219 102.128 136.121 102.238 136.052C102.348 135.983 102.505 135.896 102.708 135.79C102.916 135.684 103.107 135.603 103.282 135.546C103.725 135.399 104.163 135.326 104.594 135.326C105.029 135.326 105.412 135.369 105.741 135.454C106.075 135.535 106.358 135.647 106.59 135.79C106.826 135.928 107.029 136.109 107.2 136.333C107.375 136.553 107.516 136.785 107.621 137.029C107.727 137.269 107.811 137.55 107.872 137.871C107.977 138.424 108.03 139.076 108.03 139.824L107.908 144.072C107.908 144.186 107.916 144.253 107.933 144.274C107.949 144.29 108.008 144.298 108.11 144.298H108.86C109.023 144.298 109.133 144.327 109.19 144.384C109.251 144.436 109.281 144.538 109.281 144.689C109.281 144.835 109.259 144.943 109.214 145.012C109.17 145.085 109.068 145.122 108.909 145.122L107.035 145.073L104.856 145.122C104.681 145.122 104.576 145.098 104.539 145.049C104.502 145 104.484 144.892 104.484 144.725C104.484 144.441 104.616 144.298 104.881 144.298H105.955C106.057 144.298 106.108 143.438 106.108 141.716C106.108 139.991 106.087 138.978 106.047 138.677C106.006 138.376 105.933 138.087 105.827 137.81C105.721 137.533 105.583 137.303 105.412 137.12C105.042 136.722 104.498 136.522 103.782 136.522C103.229 136.522 102.584 136.711 101.847 137.09C101.502 137.269 101.304 137.393 101.255 137.462C101.207 137.527 101.182 137.615 101.182 137.725L101.158 143.901C101.158 144.097 101.17 144.213 101.194 144.249C101.219 144.282 101.29 144.298 101.408 144.298H102.36C102.519 144.298 102.616 144.329 102.653 144.39C102.69 144.447 102.708 144.532 102.708 144.646C102.708 144.756 102.706 144.829 102.702 144.866C102.698 144.902 102.688 144.943 102.671 144.988C102.635 145.077 102.539 145.122 102.385 145.122L100.285 145.073L98.0083 145.122C97.8496 145.122 97.7581 145.094 97.7336 145.037C97.7011 144.955 97.6848 144.843 97.6848 144.701C97.6848 144.559 97.7031 144.457 97.7397 144.396C97.7804 144.331 97.87 144.298 98.0083 144.298H99.1313C99.2656 144.298 99.3328 143.145 99.3328 140.837C99.3328 138.53 99.3226 137.234 99.3022 136.949C99.286 136.661 99.2738 136.498 99.2656 136.461C99.2575 136.425 99.2493 136.396 99.2412 136.376C99.2209 136.339 99.1883 136.321 99.1436 136.321ZM112.663 145.275C112.398 145.275 112.095 145.128 111.753 144.835C111.416 144.542 111.247 144.268 111.247 144.011C111.247 143.755 111.385 143.44 111.662 143.065C111.939 142.687 112.177 142.498 112.376 142.498C112.575 142.498 112.789 142.552 113.017 142.662C113.249 142.768 113.458 142.923 113.646 143.126C113.833 143.326 113.926 143.527 113.926 143.73C113.926 143.93 113.882 144.127 113.792 144.323C113.707 144.514 113.603 144.679 113.481 144.817C113.204 145.122 112.931 145.275 112.663 145.275ZM122.325 145.073C122.007 145.073 121.849 144.957 121.849 144.725C121.849 144.595 121.942 144.449 122.129 144.286C122.321 144.123 122.544 143.948 122.801 143.761C123.061 143.57 123.324 143.385 123.588 143.206C123.857 143.027 124.148 142.823 124.461 142.595C124.778 142.363 125.077 142.133 125.358 141.906C125.643 141.678 125.92 141.421 126.188 141.136C126.457 140.852 126.687 140.565 126.878 140.276C127.309 139.633 127.525 138.955 127.525 138.243C127.525 137.527 127.338 136.97 126.963 136.571C126.593 136.172 126.105 135.973 125.499 135.973C124.599 135.973 123.586 136.437 122.459 137.365C122.333 137.47 122.251 137.523 122.215 137.523C122.178 137.523 122.095 137.45 121.965 137.303C121.834 137.153 121.769 137.029 121.769 136.931C121.769 136.829 121.908 136.663 122.184 136.431C122.465 136.199 122.809 135.959 123.216 135.71C124.241 135.088 125.214 134.777 126.133 134.777C127.053 134.777 127.822 135.086 128.44 135.704C129.063 136.319 129.374 137.084 129.374 137.999C129.374 139.586 127.773 141.35 124.571 143.291C124.437 143.368 124.369 143.419 124.369 143.444C124.369 143.464 124.512 143.474 124.797 143.474H130.021C130.058 143.474 130.221 143.191 130.51 142.626C130.798 142.06 130.953 141.777 130.973 141.777C131.043 141.777 131.15 141.8 131.297 141.844C131.447 141.885 131.523 141.928 131.523 141.973C131.523 142.103 131.289 143.071 130.821 144.878C130.78 145.008 130.664 145.073 130.473 145.073H122.325ZM140.745 150.426C140.513 150.426 140.397 150.292 140.397 150.023V145.372C140.397 145.242 140.379 145.159 140.342 145.122C140.31 145.09 140.22 145.073 140.074 145.073H134.3C133.95 145.073 133.775 144.988 133.775 144.817C133.775 144.642 133.854 144.404 134.013 144.103C134.172 143.802 134.375 143.478 134.623 143.132C135.059 142.534 135.484 141.991 135.899 141.503L139.219 137.499C139.223 137.491 139.297 137.407 139.439 137.249C139.581 137.086 139.722 136.925 139.86 136.766C139.998 136.608 140.167 136.423 140.367 136.211C140.566 135.995 140.745 135.808 140.904 135.649C141.294 135.267 141.551 135.076 141.673 135.076C141.937 135.076 142.07 135.318 142.07 135.802V143.199C142.07 143.387 142.082 143.497 142.106 143.529C142.135 143.562 142.224 143.578 142.375 143.578H143.821C143.964 143.578 144.041 143.604 144.053 143.657C144.065 143.706 144.072 143.761 144.072 143.822V144.823C144.072 144.949 144.059 145.022 144.035 145.043C144.01 145.063 143.923 145.073 143.772 145.073H142.399C142.232 145.073 142.143 145.102 142.131 145.159C142.122 145.216 142.155 146.023 142.228 147.582C142.306 149.144 142.344 149.96 142.344 150.029C142.344 150.2 142.188 150.298 141.874 150.322L140.745 150.426ZM135.649 142.925C135.636 142.941 135.577 143.012 135.472 143.138C135.37 143.26 135.317 143.36 135.313 143.438C135.313 143.519 135.474 143.566 135.795 143.578H139.994C140.194 143.578 140.31 143.56 140.342 143.523C140.379 143.482 140.397 143.358 140.397 143.151V137.749C140.397 137.493 140.375 137.36 140.33 137.352C140.289 137.34 140.228 137.385 140.147 137.487C140.066 137.588 140.015 137.651 139.994 137.676L135.649 142.925ZM151.03 140.374C151.03 139.666 151.156 138.984 151.408 138.329C151.66 137.67 152.008 137.098 152.452 136.614C153.42 135.556 154.679 135.027 156.23 135.027C157.605 135.027 158.718 135.521 159.568 136.51C160.407 137.483 160.826 138.671 160.826 140.074C160.826 141.649 160.386 142.933 159.507 143.926C158.608 144.943 157.381 145.452 155.827 145.452C154.464 145.452 153.322 144.959 152.403 143.975C151.487 142.99 151.03 141.79 151.03 140.374ZM152.952 140.776C152.952 142.009 153.302 143.022 154.002 143.816C154.49 144.373 155.099 144.652 155.827 144.652C157.861 144.652 158.879 143.067 158.879 139.897C158.879 138.437 158.449 137.297 157.591 136.479C157.131 136.044 156.576 135.826 155.925 135.826C153.943 135.826 152.952 137.476 152.952 140.776ZM167.533 134.948C168.079 134.948 168.612 135.059 169.133 135.283C169.657 135.503 170.089 135.806 170.427 136.193C170.764 136.579 170.933 136.99 170.933 137.426C170.933 137.649 170.813 137.855 170.573 138.042C170.333 138.229 170.089 138.323 169.841 138.323C169.596 138.323 169.446 138.241 169.389 138.079C169.332 137.916 169.277 137.749 169.224 137.578C169.171 137.403 169.128 137.265 169.096 137.163C169.067 137.057 169.025 136.933 168.968 136.791C168.911 136.648 168.854 136.536 168.797 136.455C168.744 136.37 168.671 136.278 168.577 136.18C168.488 136.083 168.39 136.007 168.284 135.955C168.028 135.837 167.712 135.778 167.338 135.778C166.968 135.778 166.604 135.861 166.246 136.028C165.892 136.191 165.584 136.41 165.324 136.687C165.068 136.964 164.844 137.281 164.653 137.639C164.274 138.347 164.085 139.014 164.085 139.641C164.085 140.268 164.134 140.78 164.231 141.179C164.329 141.574 164.48 141.948 164.683 142.302C164.891 142.652 165.141 142.957 165.434 143.218C166.069 143.787 166.876 144.072 167.857 144.072C168.785 144.072 169.731 143.848 170.695 143.401C170.805 143.352 170.888 143.328 170.945 143.328C171.071 143.328 171.135 143.419 171.135 143.602C171.135 143.72 170.955 143.905 170.597 144.158C170.243 144.406 169.912 144.607 169.603 144.762C168.862 145.136 168.032 145.323 167.112 145.323C165.635 145.323 164.465 144.894 163.603 144.036C162.74 143.173 162.309 141.948 162.309 140.361C162.309 138.774 162.836 137.476 163.89 136.467C164.948 135.454 166.162 134.948 167.533 134.948ZM173.686 138.103C173.686 137.135 173.594 136.65 173.411 136.65H172.789C172.654 136.65 172.587 136.567 172.587 136.4C172.587 136.315 172.628 136.231 172.709 136.15L174.986 132.976C175.083 132.826 175.191 132.75 175.309 132.75C175.492 132.75 175.584 132.85 175.584 133.049L175.438 135.448C175.438 135.538 175.446 135.59 175.462 135.607C175.478 135.619 175.537 135.625 175.639 135.625H178.215C178.329 135.625 178.385 135.676 178.385 135.778C178.385 135.798 178.361 135.914 178.312 136.125C178.263 136.333 178.211 136.469 178.154 136.534C178.101 136.595 178.019 136.626 177.909 136.626H175.535C175.47 136.626 175.438 136.984 175.438 137.7V142.498C175.438 143.108 175.501 143.478 175.627 143.608C175.863 143.853 176.148 143.975 176.481 143.975C176.819 143.975 177.138 143.942 177.439 143.877C177.745 143.812 178.001 143.747 178.208 143.682C178.42 143.612 178.56 143.578 178.63 143.578C178.703 143.578 178.74 143.657 178.74 143.816C178.74 143.971 178.731 144.062 178.715 144.091C178.703 144.115 178.607 144.194 178.428 144.329C178.249 144.459 177.818 144.654 177.134 144.915C176.455 145.171 175.928 145.299 175.553 145.299C175.179 145.299 174.864 145.244 174.607 145.134C174.355 145.024 174.16 144.878 174.021 144.695C173.765 144.353 173.637 143.962 173.637 143.523L173.686 138.103ZM181.877 145.275C181.612 145.275 181.309 145.128 180.967 144.835C180.63 144.542 180.461 144.268 180.461 144.011C180.461 143.755 180.599 143.44 180.876 143.065C181.152 142.687 181.39 142.498 181.59 142.498C181.789 142.498 182.003 142.552 182.231 142.662C182.463 142.768 182.672 142.923 182.859 143.126C183.047 143.326 183.14 143.527 183.14 143.73C183.14 143.93 183.095 144.127 183.006 144.323C182.92 144.514 182.817 144.679 182.695 144.817C182.418 145.122 182.145 145.275 181.877 145.275Z" fill="black"/>
<path d="M41.5755 183.24H30.6555V180.9C33.6155 180.82 36.1555 180.2 38.2755 179.04C40.3955 177.84 41.9355 176.16 42.8955 174H47.6955V216H41.5755V183.24ZM84.0128 216.6C77.7728 216.6 72.9528 214.74 69.5528 211.02C66.1928 207.26 64.5128 201.92 64.5128 195C64.5128 188.08 66.1928 182.76 69.5528 179.04C72.9528 175.28 77.7728 173.4 84.0128 173.4C90.2128 173.4 94.9928 175.28 98.3528 179.04C101.753 182.76 103.453 188.08 103.453 195C103.453 201.92 101.773 207.26 98.4128 211.02C95.0528 214.74 90.2528 216.6 84.0128 216.6ZM84.0128 214.08C88.1728 214.08 91.3928 212.42 93.6728 209.1C95.9928 205.78 97.1528 201.08 97.1528 195C97.1528 188.92 95.9928 184.22 93.6728 180.9C91.3928 177.58 88.1728 175.92 84.0128 175.92C79.8528 175.92 76.6128 177.58 74.2928 180.9C72.0128 184.22 70.8728 188.92 70.8728 195C70.8728 201.08 72.0128 205.78 74.2928 209.1C76.6128 212.42 79.8528 214.08 84.0128 214.08ZM126.969 216.6C125.969 216.6 125.149 216.3 124.509 215.7C123.909 215.06 123.609 214.26 123.609 213.3C123.609 212.38 123.929 211.62 124.569 211.02C125.209 210.38 126.009 210.06 126.969 210.06C127.969 210.06 128.789 210.38 129.429 211.02C130.069 211.62 130.389 212.38 130.389 213.3C130.389 214.26 130.069 215.06 129.429 215.7C128.789 216.3 127.969 216.6 126.969 216.6ZM126.969 192.6C125.969 192.6 125.149 192.3 124.509 191.7C123.909 191.06 123.609 190.26 123.609 189.3C123.609 188.38 123.929 187.62 124.569 187.02C125.209 186.38 126.009 186.06 126.969 186.06C127.969 186.06 128.789 186.38 129.429 187.02C130.069 187.62 130.389 188.38 130.389 189.3C130.389 190.26 130.069 191.06 129.429 191.7C128.789 192.3 127.969 192.6 126.969 192.6ZM169.368 183.24H158.448V180.9C161.408 180.82 163.948 180.2 166.068 179.04C168.188 177.84 169.728 176.16 170.688 174H175.488V216H169.368V183.24ZM211.806 216.6C205.566 216.6 200.746 214.74 197.346 211.02C193.986 207.26 192.306 201.92 192.306 195C192.306 188.08 193.986 182.76 197.346 179.04C200.746 175.28 205.566 173.4 211.806 173.4C218.006 173.4 222.786 175.28 226.146 179.04C229.546 182.76 231.246 188.08 231.246 195C231.246 201.92 229.566 207.26 226.206 211.02C222.846 214.74 218.046 216.6 211.806 216.6ZM211.806 214.08C215.966 214.08 219.186 212.42 221.466 209.1C223.786 205.78 224.946 201.08 224.946 195C224.946 188.92 223.786 184.22 221.466 180.9C219.186 177.58 215.966 175.92 211.806 175.92C207.646 175.92 204.406 177.58 202.086 180.9C199.806 184.22 198.666 188.92 198.666 195C198.666 201.08 199.806 205.78 202.086 209.1C204.406 212.42 207.646 214.08 211.806 214.08Z" fill="black"/>
<path d="M59 30L205.5 32L218 86.5L39.5 85.5L59 30Z" fill="#E8C3C5"/>
<path d="M56.5 444H204.034L225 387.5H36L56.5 444Z" fill="#E8C3C5"/>
</svg>
